<?xml version="1.0" encoding="UTF-8"?>
<!DOCTYPE svg PUBLIC "-//W3C//DTD SVG 1.1//EN" "http://www.w3.org/Graphics/SVG/1.1/DTD/svg11.dtd">
<!-- Creator: CorelDRAW X8 -->
<svg xmlns="http://www.w3.org/2000/svg" xml:space="preserve" width="449px" height="727px" version="1.1" style="shape-rendering:geometricPrecision; text-rendering:geometricPrecision; image-rendering:optimizeQuality; fill-rule:evenodd; clip-rule:evenodd"
viewBox="0 0 449 727"
 xmlns:xlink="http://www.w3.org/1999/xlink">
 <defs>
  <style type="text/css">
   <![CDATA[
    .fil0 {fill:white}
    .fil4 {fill:url(#id0)}
    .fil3 {fill:url(#id1)}
    .fil2 {fill:url(#id2);fill-opacity:0.568627}
    .fil1 {fill:url(#id3);fill-opacity:0.568627}
   ]]>
  </style>
  <linearGradient id="id0" gradientUnits="userSpaceOnUse" x1="-35.818" y1="557.529" x2="455.251" y2="557.529">
   <stop offset="0" style="stop-opacity:1; stop-color:#6B51ED"/>
   <stop offset="1" style="stop-opacity:1; stop-color:#1181C8"/>
  </linearGradient>
  <linearGradient id="id1" gradientUnits="userSpaceOnUse" x1="-353.987" y1="237.429" x2="753.74" y2="237.429">
   <stop offset="0" style="stop-opacity:1; stop-color:#1181C8"/>
   <stop offset="1" style="stop-opacity:1; stop-color:#6B51ED"/>
  </linearGradient>
  <linearGradient id="id2" gradientUnits="userSpaceOnUse" xlink:href="#id0" x1="-35.818" y1="557.529" x2="455.251" y2="557.529">
  </linearGradient>
  <linearGradient id="id3" gradientUnits="userSpaceOnUse" xlink:href="#id1" x1="-353.987" y1="237.428" x2="753.74" y2="237.428">
  </linearGradient>
 </defs>
 <g id="Warstwa_x0020_1">
  <metadata id="CorelCorpID_0Corel-Layer"/>
  <rect class="fil0" width="449" height="727"/>
  <path class="fil1" d="M449 540c-80,-36 -198,-103 -205,-197 -7,-94 -37,-175 -244,-192l0 -151 449 0 0 540z"/>
  <path class="fil2" d="M0 476c29,84 -15,155 105,123 120,-32 280,50 280,94 0,44 56,30 56,34l-441 0 0 -251z"/>
  <path class="fil3" d="M449 540c-80,-36 -144,-96 -148,-163 -9,-120 -94,-209 -301,-226l0 -151 449 0 0 540z"/>
  <path class="fil4" d="M0 476c29,84 79,166 161,145 158,-42 280,10 280,94 0,4 0,8 0,12l-441 0 0 -251z"/>
 </g>
</svg>
