<?xml version="1.0" encoding="UTF-8"?>
<!DOCTYPE svg PUBLIC "-//W3C//DTD SVG 1.1//EN" "http://www.w3.org/Graphics/SVG/1.1/DTD/svg11.dtd">
<!-- Creator: CorelDRAW X8 -->
<svg xmlns="http://www.w3.org/2000/svg" xml:space="preserve" width="410px" height="350px" version="1.1" style="shape-rendering:geometricPrecision; text-rendering:geometricPrecision; image-rendering:optimizeQuality; fill-rule:evenodd; clip-rule:evenodd"
viewBox="0 0 410 350"
 xmlns:xlink="http://www.w3.org/1999/xlink">
 <defs>
  <style type="text/css">
   <![CDATA[
    .fil1 {fill:url(#id0)}
    .fil0 {fill:url(#id1);fill-opacity:0.568627}
   ]]>
  </style>
  <linearGradient id="id0" gradientUnits="userSpaceOnUse" x1="-0.000283465" y1="121.094" x2="409.959" y2="121.094">
   <stop offset="0" style="stop-opacity:1; stop-color:#1181C8"/>
   <stop offset="1" style="stop-opacity:1; stop-color:#6B51ED"/>
  </linearGradient>
  <linearGradient id="id1" gradientUnits="userSpaceOnUse" x1="-0.000279784" y1="127.283" x2="410" y2="127.283">
   <stop offset="0" style="stop-opacity:1; stop-color:#0385B8"/>
   <stop offset="1" style="stop-opacity:1; stop-color:#4930C7"/>
  </linearGradient>
 </defs>
 <g id="Warstwa_x0020_1">
  <metadata id="CorelCorpID_0Corel-Layer"/>
  <path class="fil0" d="M205 0l205 0 0 137c-11,-8 -26,-14 -47,-16 -87,-12 -95,42 -134,33 -39,-9 -53,-37 -114,37 -38,45 -89,68 -115,63l0 -71 0 -183 205 0z"/>
  <path class="fil1" d="M0 0l410 0 0 138c-17,-18 -37,-36 -80,-36 -89,-2 -91,53 -130,48 -39,-5 -66,-24 -109,31 -37,46 -64,63 -91,61l0 -48 0 -194z"/>
 </g>
</svg>
